HIERARCHY
ROOT Hips
{
	OFFSET	0.00	0.00	0.00
	CHANNELS 6 Xposition Yposition Zposition Zrotation Xrotation Yrotation
	JOINT LeftUpLeg
	{
		OFFSET	 0.126116	-0.014019	-0.065224
		CHANNELS 3 Zrotation Xrotation Yrotation
		JOINT LeftLeg
		{
			OFFSET	 0.000000	 0.000000	 0.569914
			CHANNELS 3 Zrotation Xrotation Yrotation
			JOINT LeftFoot
			{
				OFFSET	 0.000000	 0.000000	 0.544423
				CHANNELS 3 Zrotation Xrotation Yrotation
				JOINT LeftToeBase
				{
					OFFSET	 0.000000	 0.000000	 0.207117
					CHANNELS 3 Zrotation Xrotation Yrotation
					End Site
					{
						OFFSET	 0.000000	 0.000000	 0.207117
					}
				}
			}
		}
	}
	JOINT RightUpLeg
	{
		OFFSET	-0.124023	-0.008373	-0.065224
		CHANNELS 3 Zrotation Xrotation Yrotation
		JOINT RightLeg
		{
			OFFSET	 0.000000	 0.000000	 0.570047
			CHANNELS 3 Zrotation Xrotation Yrotation
			JOINT RightFoot
			{
				OFFSET	 0.000000	 0.000000	 0.544354
				CHANNELS 3 Zrotation Xrotation Yrotation
				JOINT RightToeBase
				{
					OFFSET	 0.000000	 0.000000	 0.207540
					CHANNELS 3 Zrotation Xrotation Yrotation
					End Site
					{
						OFFSET	 0.000000	 0.000000	 0.207540
					}
				}
			}
		}
	}
	JOINT Spine
	{
		OFFSET	 0.000184	-0.007763	 0.117403
		CHANNELS 3 Zrotation Xrotation Yrotation
		JOINT Spine1
		{
			OFFSET	 0.000000	 0.000000	 0.137269
			CHANNELS 3 Zrotation Xrotation Yrotation
			JOINT Spine2
			{
				OFFSET	 0.000000	 0.000000	 0.156879
				CHANNELS 3 Zrotation Xrotation Yrotation
				JOINT LeftShoulder
				{
					OFFSET	 0.080501	-0.002496	 0.160144
					CHANNELS 3 Zrotation Xrotation Yrotation
					JOINT LeftArm
					{
						OFFSET	 0.000000	 0.000000	 0.164363
						CHANNELS 3 Zrotation Xrotation Yrotation
						JOINT LeftForeArm
						{
							OFFSET	 0.000000	 0.000000	 0.364576
							CHANNELS 3 Zrotation Xrotation Yrotation
							JOINT LeftHand
							{
								OFFSET	 0.000000	 0.000000	 0.360812
								CHANNELS 3 Zrotation Xrotation Yrotation
								JOINT LeftHandIndex1
								{
									OFFSET	 0.000000	 0.000000	 0.086006
									CHANNELS 3 Zrotation Xrotation Yrotation
									JOINT LeftHandIndex2
									{
										OFFSET	 0.000000	 0.000000	 0.047237
										CHANNELS 3 Zrotation Xrotation Yrotation
										JOINT LeftHandIndex3
										{
											OFFSET	-0.004284	-0.000551	 0.038165
											CHANNELS 3 Zrotation Xrotation Yrotation
											End Site
											{
												OFFSET	-0.004284	-0.000551	 0.038165
											}
										}
									}
								}
							}
						}
					}
				}
				JOINT Neck
				{
					OFFSET	 0.000000	 0.000000	 0.176489
					CHANNELS 3 Zrotation Xrotation Yrotation
					JOINT Head
					{
						OFFSET	 0.000000	-0.001747	 0.077940
						CHANNELS 3 Zrotation Xrotation Yrotation
						End Site
						{
							OFFSET	 0.000000	-0.001747	 0.077940
						}
					}
				}
				JOINT RightShoulder
				{
					OFFSET	-0.080363	 0.000306	 0.159706
					CHANNELS 3 Zrotation Xrotation Yrotation
					JOINT RightArm
					{
						OFFSET	 0.000000	 0.000000	 0.164196
						CHANNELS 3 Zrotation Xrotation Yrotation
						JOINT RightForeArm
						{
							OFFSET	 0.000000	 0.000000	 0.365611
							CHANNELS 3 Zrotation Xrotation Yrotation
							JOINT RightHand
							{
								OFFSET	 0.000000	 0.000000	 0.360648
								CHANNELS 3 Zrotation Xrotation Yrotation
								JOINT RightHandIndex1
								{
									OFFSET	 0.000000	 0.000000	 0.069977
									CHANNELS 3 Zrotation Xrotation Yrotation
									JOINT RightHandIndex2
									{
										OFFSET	 0.000000	 0.000000	 0.052305
										CHANNELS 3 Zrotation Xrotation Yrotation
										JOINT RightHandIndex3
										{
											OFFSET	 0.009002	-0.000782	 0.042196
											CHANNELS 3 Zrotation Xrotation Yrotation
											End Site
											{
												OFFSET	 0.009002	-0.000782	 0.042196
											}
										}
									}
								}
							}
						}
					}
				}
			}
		}
	}
}
MOTION
Frames:    11
Frame Time: 0.03333334
-0.713819	-0.006604	 1.270775	-176.030400	-7.414818	-1.439975	 19.427720	 5.189600	 174.228100	-6.263705	-11.653340	-1.569988	-11.309780	 68.954220	 5.674381	-2.385833	 28.452760	 0.000004	-16.690120	 4.138763	-173.582700	 3.596864	-16.381670	 1.078072	 14.847280	 72.137600	-10.755130	 2.384659	 28.388700	-0.000001	 7.863373	 8.035207	-1.604346	 4.792884	 12.946360	 11.570850	-21.779590	-5.696632	-19.225660	-91.776180	 78.527400	 180.000000	 13.824040	 13.941700	 14.285490	-15.742310	-4.206833	-57.768270	-1.910212	-11.094070	-2.388134	-4.130354	 21.526190	 0.991307	-5.167926	 0.731697	 3.519349	-1.378229	 35.397820	-2.634230	-9.282928	 1.408922	 4.875421	-10.436350	-17.352960	-8.108952	 89.782140	 78.203890	 180.000000	 41.268340	 8.109207	-5.839026	 9.594587	-2.559787	 48.010730	 40.148460	 23.627350	-17.829040	 5.716295	 19.173350	-3.684826	 5.027458	 0.246833	-9.377971	-2.350882	 35.473990	 5.254307
-0.713874	-0.006681	 1.270471	-175.998600	-7.456804	-1.464873	 19.403020	 4.870926	 174.132700	-6.304264	-12.568610	-1.700301	-12.190910	 69.490590	 6.629851	-2.385833	 28.452760	 0.000004	-16.639030	 4.163186	-173.491800	 3.612388	-16.774920	 1.107712	 15.268050	 72.468980	-11.201100	 2.384659	 28.388700	-0.000001	 7.620007	 8.084735	-1.628487	 4.550050	 12.617790	 11.669880	-21.684160	-5.468605	-19.156330	-91.776150	 78.527380	 180.000000	 12.639780	 16.606290	 15.357120	-15.981050	-4.486273	-61.722150	-1.929635	-11.087570	-2.396272	-4.130354	 21.526190	 0.991307	-5.167926	 0.731697	 3.519349	-1.378229	 35.397820	-2.634230	-9.262444	 1.378480	 4.869620	-10.416740	-17.276020	-8.104177	 89.782100	 78.203900	 180.000000	 39.408530	 10.006460	-8.541886	 9.839140	-2.772826	 53.401460	 40.870670	 21.352650	-17.254080	 5.716295	 19.173350	-3.684826	 5.027458	 0.246833	-9.377971	-2.350882	 35.473990	 5.254307
-0.713927	-0.006764	 1.270147	-175.966800	-7.500979	-1.489705	 19.376630	 4.566603	 174.027500	-6.346731	-13.471450	-1.830246	-13.141680	 70.017880	 7.658030	-2.385833	 28.452760	 0.000004	-16.587700	 4.200206	-173.396800	 3.628157	-17.173090	 1.137892	 15.734000	 72.812350	-11.693130	 2.384659	 28.388700	-0.000001	 7.362616	 8.137547	-1.653217	 4.293357	 12.267230	 11.768370	-21.585000	-5.229450	-19.082840	-91.776230	 78.527400	-179.999900	 11.404760	 19.500800	 16.304570	-16.226810	-4.743590	-65.446590	-1.949979	-11.080070	-2.403974	-4.130354	 21.526190	 0.991307	-5.167926	 0.731697	 3.519349	-1.378229	 35.397820	-2.634230	-9.241982	 1.348033	 4.863868	-10.397240	-17.199120	-8.099506	 89.782190	 78.203900	 179.999900	 37.373100	 12.032360	-11.008390	 10.085290	-2.951736	 58.445430	 41.360390	 19.021450	-16.293310	 5.716295	 19.173350	-3.684826	 5.027458	 0.246833	-9.377971	-2.350882	 35.473990	 5.254307
-0.714141	-0.007258	 1.268358	-175.909500	-7.641287	-1.639098	 19.451010	 3.174369	 173.397000	-6.628015	-17.705300	-2.475793	-18.983510	 72.196980	 14.017630	-2.385833	 28.452760	 0.000004	-16.065800	 4.441864	-172.928300	 3.596034	-19.230380	 1.258683	 18.415590	 74.780590	-14.353590	 2.384659	 28.388700	-0.000001	 5.928801	 8.316506	-1.650764	 2.848933	 10.257410	 12.056000	-20.990350	-4.026128	-18.576490	-91.776210	 78.527360	-180.000000	 5.393676	 37.150600	 18.909470	-17.314580	-5.476479	-78.871700	-2.189862	-11.100720	-2.430365	-4.130354	 21.526190	 0.991307	-5.167926	 0.731697	 3.519349	-1.378229	 35.397820	-2.634230	-8.974868	 0.956040	 4.643915	-10.183250	-16.611330	-7.505570	 89.782140	 78.203890	 180.000000	 23.739460	 24.054560	-18.613080	 11.140090	-3.661693	 78.322170	 40.270050	 7.061766	-6.462933	 5.716295	 19.173350	-3.684826	 5.027458	 0.246833	-9.377971	-2.350882	 35.473990	 5.254307
-0.714625	-0.008433	 1.265149	-175.951800	-7.825381	-1.026262	 19.250050	 0.988140	 171.156200	-7.049139	-24.493970	-3.551029	-33.795630	 75.671690	 29.537170	-2.385833	 28.452760	 0.000004	-15.240730	 6.115435	-172.861200	 3.353042	-21.532910	 1.313060	 27.129850	 77.525260	-23.024280	 2.384659	 28.388700	-0.000001	 3.071814	 8.913231	-3.080269	-0.269738	 4.646526	 12.644680	-19.385850	-0.086645	-16.907720	-91.776190	 78.527360	-180.000000	 11.252920	 69.717780	-1.131097	-16.002780	-5.640980	-67.025970	-2.183845	-10.821060	-2.496615	-4.130354	 21.526190	 0.991307	-5.167926	 0.731697	 3.519349	-1.378229	 35.397820	-2.634230	-8.498927	 0.586363	 4.668506	-9.737089	-15.177810	-7.660885	 89.782140	 78.203870	 179.999900	-16.961580	 47.842170	 2.762088	 11.466710	-5.491004	 85.529670	 25.428340	-15.634750	 17.364900	 5.716295	 19.173350	-3.684826	 5.027458	 0.246833	-9.377971	-2.350882	 35.473990	 5.254307
-0.715747	-0.009656	 1.264150	-176.035600	-7.308812	-0.468266	 19.617360	-0.791908	 169.554100	-7.258045	-28.352700	-4.166837	-43.593740	 76.779300	 39.696990	-2.385833	 28.452760	 0.000004	-14.268800	 7.039115	-173.117200	 3.261498	-22.552810	 1.336846	 36.295880	 79.350980	-32.215530	 2.384659	 28.388700	-0.000001	 0.707266	 9.858130	-3.986794	-2.696278	-1.965841	 12.072460	-17.813000	 4.179421	-14.799230	-91.776150	 78.527420	 180.000000	 28.576920	 73.874640	-52.605590	-12.001030	-0.054941	-0.518114	-2.140733	-10.862180	-2.491229	-4.130354	 21.526190	 0.991307	-5.167926	 0.731697	 3.519349	-1.378229	 35.397820	-2.634230	-7.606787	-0.091577	 3.950684	-9.139113	-13.526760	-6.671060	 89.782090	 78.203890	 180.000000	-51.995060	 52.390110	 43.428950	 9.002137	-6.224552	 65.023130	 14.194980	-27.725030	 33.612750	 5.716295	 19.173350	-3.684826	 5.027458	 0.246833	-9.377971	-2.350882	 35.473990	 5.254307
-0.718507	-0.009413	 1.267114	-176.725600	-6.125628	-0.748999	 21.208160	-1.942395	 170.448400	-7.540173	-28.189400	-4.280668	-40.687460	 77.017470	 36.743640	-2.385833	 28.452760	 0.000004	-13.123200	 5.147847	-173.075600	 3.166736	-23.166780	 1.333855	 36.295590	 79.570010	-32.170780	 2.384659	 28.388700	-0.000001	 0.758687	 10.252830	-4.014129	-2.911925	-6.354652	 12.340240	-16.700690	 7.966849	-13.557940	-91.776140	 78.527430	 180.000000	 22.888200	 71.621760	-46.191520	-12.612140	-0.050655	-0.539664	-2.129883	-11.069640	-2.436228	-4.130354	 21.526190	 0.991307	-5.167926	 0.731697	 3.519349	-1.378229	 35.397820	-2.634230	-6.961719	-0.400306	 3.568563	-8.684067	-11.793590	-6.468639	 89.782100	 78.203870	 180.000000	-50.489480	 50.578370	 38.154880	 10.299120	-7.841312	 78.482780	 7.909196	-25.025640	 21.794030	 5.716295	 19.173350	-3.684826	 5.027458	 0.246833	-9.377971	-2.350882	 35.473990	 5.254307
-0.721335	-0.012579	 1.270704	-177.583400	-5.192276	-0.072818	 21.976570	-3.271388	 170.536000	-7.994511	-28.073690	-4.482775	-41.948260	 78.400800	 37.946900	-2.385833	 28.452760	 0.000004	-11.911550	 3.650736	-174.070600	 2.887479	-23.323670	 1.231516	 34.023970	 79.114790	-29.681340	 2.384659	 28.388700	-0.000001	 1.169219	 10.835620	-5.356294	-2.880452	-9.188231	 12.430810	-16.085380	 10.711630	-12.313190	-91.776210	 78.527360	-180.000000	 23.192650	 70.795300	-36.019630	-13.530880	-1.784735	-20.168110	-1.809760	-11.058150	-2.393089	-4.130354	 21.526190	 0.991307	-5.167926	 0.731697	 3.519349	-1.378229	 35.397820	-2.634230	-6.378583	-0.788970	 2.763818	-8.322280	-9.782493	-4.865508	 89.782070	 78.203870	-180.000000	-46.244340	 49.400320	 31.629340	 12.221240	-9.049700	 92.111470	 3.415684	-20.047830	 9.299088	 5.716295	 19.173350	-3.684826	 5.027458	 0.246833	-9.377971	-2.350882	 35.473990	 5.254307
-0.723527	-0.019063	 1.272926	-177.793500	-3.852849	 0.408004	 22.772660	-5.305613	 170.534000	-8.276704	-28.399670	-4.667483	-40.908670	 78.475780	 36.963100	-2.385833	 28.452760	 0.000004	-11.364490	 1.681942	-174.976500	 2.718991	-24.061090	 1.199302	 33.645150	 79.716120	-29.103590	 2.384659	 28.388700	-0.000001	 0.508139	 11.977310	-6.563342	-2.940172	-13.963130	 11.916410	-15.462870	 14.628370	-10.201390	-91.776220	 78.527360	-180.000000	 24.001960	 69.531940	-37.524770	-14.444840	-1.467072	-20.428500	-1.775912	-11.231380	-2.323074	-4.130354	 21.526190	 0.991307	-5.167926	 0.731697	 3.519349	-1.378229	 35.397820	-2.634230	-5.676791	-0.090852	 2.103791	-7.903680	-8.790826	-3.971661	 89.782130	 78.203870	 180.000000	-49.032410	 47.133950	 35.424290	 12.791330	-9.642777	 95.390760	-1.622746	-18.290570	 2.689701	 5.716295	 19.173350	-3.684826	 5.027458	 0.246833	-9.377971	-2.350882	 35.473990	 5.254307
-0.726660	-0.028852	 1.276170	-178.484600	-2.124572	-0.081103	 24.213120	-7.567718	 172.122300	-8.495014	-28.486370	-4.787016	-37.759010	 78.799340	 33.669010	-2.385833	 28.452760	 0.000004	-10.269780	-1.584623	-174.766800	 2.702068	-25.251330	 1.247592	 31.318990	 79.793500	-26.721630	 2.384659	 28.388700	-0.000001	 0.376862	 13.114980	-6.935125	-2.745098	-17.820010	 11.777700	-15.144710	 17.949140	-8.689643	-91.776120	 78.527360	 179.999900	 26.150250	 68.428920	-39.800820	-15.587200	-1.261148	-24.284110	-1.724353	-11.257970	-2.235769	-4.130354	 21.526190	 0.991307	-5.167926	 0.731697	 3.519349	-1.378229	 35.397820	-2.634230	-5.225363	 0.611441	 1.810806	-7.629359	-8.031405	-3.290055	 89.782020	 78.203900	-179.999900	-50.204200	 44.950680	 39.168720	 12.949190	-9.846824	 96.213380	-5.069853	-17.054590	-3.099396	 5.716295	 19.173350	-3.684826	 5.027458	 0.246833	-9.377971	-2.350882	 35.473990	 5.254307
-0.733490	-0.049262	 1.278951	-179.122800	 0.604318	-0.082342	 25.968160	-11.960840	 174.192200	-8.628233	-29.243050	-4.969149	-32.429480	 78.970090	 28.044940	-2.385833	 28.452760	 0.000004	-9.095327	-6.254525	-175.185400	 2.691128	-25.939460	 1.274465	 22.408440	 79.326130	-17.450130	 2.384659	 28.388700	-0.000001	 0.119275	 15.453130	-8.213787	-2.836898	-21.624800	 8.803964	-15.607780	 20.166140	-5.334289	-91.776210	 78.527400	-180.000000	 29.138200	 67.832160	-43.683970	-16.603510	-1.093481	-31.556060	-1.762589	-11.299980	-2.151766	-4.130354	 21.526190	 0.991307	-5.167926	 0.731697	 3.519349	-1.378229	 35.397820	-2.634230	-4.648689	 0.101211	 1.475633	-7.271196	-6.833537	-1.673902	 89.782110	 78.203850	 180.000000	-48.167920	 41.690050	 43.991560	 12.330140	-9.652599	 92.688190	-8.723289	-15.525510	-7.677356	 5.716295	 19.173350	-3.684826	 5.027458	 0.246833	-9.377971	-2.350882	 35.473990	 5.254307
